# xmcd
#
# Track frame offsets: 
#        150
#        12238
#        22692
#        35026
#        47864
#        59809
#        71281
#        82041
#        93226
#        107316
#        120627
#        133176
#
# Disc length: 1983 seconds
#
# Revision: 0
# Processed by: cddbd v1.5.2PL0 Copyright (c) Steve Scherf et al.
# Submitted via: ExactAudioCopy v0.99pb5
#
DISCID=9a07bd0c
DTITLE=The Temptations - Icon 2 [CD1]
DYEAR=2010
DGENRE=R&B
TTITLE0=The Way You Do the Things You Do
TTITLE1=Girl (Why You Wanna Make Me Blue)
TTITLE2=My Girl
TTITLE3=Since I Lost My Baby
TTITLE4=Get Ready
TTITLE5=Ain't Too Proud to Beg
TTITLE6=Beauty Is Only Skin Deep
TTITLE7=(I Know) I'm Losing You
TTITLE8=All I Need
TTITLE9=You're My Everything
TTITLE10=I Wish It Would Rain
TTITLE11=Cloud Nine
EXTD=
EXTT0=
EXTT1=
EXTT2=
EXTT3=
EXTT4=
EXTT5=
EXTT6=
EXTT7=
EXTT8=
EXTT9=
EXTT10=
EXTT11=
PLAYORDER=
